pedal_clip_forces_x_-0.09_y_-0.05.mot
version=1
nRows=167
nColumns=4
inDegrees=yes
endheader
time	PedalClip_calcn_r_Fx	PedalClip_calcn_r_Fy	PedalClip_calcn_r_Fz
0.41808039	-102.148333712189	153.092212842868	0
0.41836908	-101.885454831838	152.087434814469	0
0.41873086	-101.623715595735	151.084819920668	0
0.41909628	-101.363107093584	150.084418089422	0
0.41913282	-101.103645965952	149.08643479675	0
0.41917898	-100.845360668154	148.091084927537	0
0.41940978	-100.588258180359	147.098449582272	0
0.41963647	-100.332332442317	146.108527984395	0
0.42015218	-100.077575195302	145.121348205164	0
0.42020376	-99.823985323071	144.136946569427	0
0.42027764	-99.5715433842737	143.155261762344	0
0.42058582	-99.320221895198	142.176230903241	0
0.42088244	-99.0699904914904	141.199887483183	0
0.42129758	-98.8208478935584	140.226447732769	0
0.42133909	-98.5728113215573	139.256159867228	0
0.42140426	-98.3258930584053	138.289195822492	0
0.4217301	-98.080106473954	137.325764903474	0
0.42219941	-97.8354743004512	136.366169347114	0
0.42224634	-97.5920464107914	135.410738272687	0
0.42234249	-97.3498745743679	134.459665661178	0
0.42265409	-97.1089957459667	133.513033630455	0
0.42338505	-96.86942453271	132.570745234317	0
0.42345815	-96.6311634514694	131.63264377261	0
0.42353125	-96.3942174350974	130.698622207871	0
0.42389673	-96.1586104417143	129.768716281792	0
0.42426468	-95.9243762984629	128.843082933906	0
0.42430147	-95.6915531109668	127.921912056735	0
0.42434639	-95.4602060118981	127.005497096841	0
0.42457101	-95.2304010576052	126.094077132251	0
0.42479812	-95.0021783394365	125.187613179514	0
0.42539529	-94.7755754782527	124.285911217307	0
0.42545501	-94.5506174944157	123.388691809061	0
0.42551473	-94.3273256998897	122.495806179303	0
0.42560229	-94.1057276769452	121.607214107678	0
0.42604011	-93.8858477988783	120.722868137386	0
0.42625644	-93.6676657057342	119.842486297549	0
0.42685623	-93.4511302031286	118.965701016114	0
0.42691621	-93.2362066056358	118.092285303655	0
0.42697619	-93.0228725631574	117.222032781604	0
0.42709717	-92.8111076750136	116.354752883793	0
0.42735749	-92.6008727585697	115.490220206225	0
0.42780185	-92.39209082502	114.628110535728	0
0.42804811	-92.1846877722772	113.768150408688	0
0.42842803	-91.9785880922813	112.910034177271	0
0.42884972	-91.7737278114468	112.053490818893	0
0.42889189	-91.5700769818683	111.198360492187	0
0.42895139	-91.3676185618751	110.344586327527	0
0.42924888	-91.1663341809829	109.492021742683	0
0.42957814	-90.9662041173962	108.640333729701	0
0.42998474	-90.7672075811985	107.78917360286	0
0.4300254	-90.5692992829777	106.938308151337	0
0.4300837	-90.3724107394213	106.08738051701	0
0.4303752	-90.1764439237817	105.235846944595	0
0.43064924	-89.9813017376414	104.383149109445	0
0.43110989	-89.7869022528983	103.529011265562	0
0.43115595	-89.5931785777511	102.673549254759	0
0.43125749	-89.4000730642352	101.816965048757	0
0.43161091	-89.2075285585833	100.959439012221	0
0.43203477	-89.015505205872	100.101006394555	0
0.43207716	-88.8239875947225	99.2416429437179	0
0.43214405	-88.6329854964956	98.3814464579892	0
0.4324785	-88.442508243055	97.5206053917955	0
0.43309732	-88.2525517460712	96.6592732122068	0
0.43315921	-88.0631139247987	95.7974571476356	0
0.43322109	-87.8742168296876	94.935135198609	0
0.43332047	-87.685909357972	94.0721591852045	0
0.43371362	-87.4982524123164	93.2083941508545	0
0.43408411	-87.3113228638	92.3439701496556	0
0.43412116	-87.1252135173757	91.4791765223585	0
0.43415821	-86.9400207930436	90.6143616273658	0
0.43434346	-86.7558049502983	89.7497105398246	0
0.43453908	-86.5725968339474	88.8853955705079	0
0.43515398	-86.390419750041	88.0216830245724	0
0.43523434	-86.2092996026353	87.1590136027301	0
0.43559181	-86.0292553492268	86.2978394347282	0
0.43602201	-85.8503148916896	85.4386413972513	0
0.4362295	-85.6725067435241	84.5818554873434	0
0.43683338	-85.4958532202974	83.7278829001363	0
0.43704303	-85.3203783408375	82.8770743379982	0
0.43741919	-85.146101322447	82.0296394199725	0
0.43795169	-84.9730467707459	81.1857291617426	0
0.43800494	-84.8012444332842	80.3455088607391	0
0.43808857	-84.6306968977448	79.5089825446112	0
0.43850669	-84.4613802952431	78.6759836917835	0
0.43887677	-84.2932694782305	77.846360198309	0
0.43891378	-84.1263527009358	77.0200643089255	0
0.43895079	-83.9606379284949	76.1971663930154	0
0.43913583	-83.7961396270333	75.3778179666889	0
0.43935168	-83.6328610082376	74.5621127052848	0
0.4399648	-83.4708021911113	73.7501195293271	0
0.44017839	-83.3099651084172	72.9418791324729	0
0.44054746	-83.1503402764177	72.1374458795732	0
0.44108991	-82.9919213846905	71.3370130525522	0
0.44114415	-82.8347117659889	70.5407652443395	0
0.44124831	-82.6787381018567	69.7489075968123	0
0.4414228	-82.5240174077935	68.9615294917698	0
0.44159501	-82.3705513883245	68.1786006660449	0
0.44190933	-82.2183443707292	67.4001402031982	0
0.44235093	-82.0674128404246	66.6263579668537	0
0.44239509	-81.9177842658357	65.8574490808021	0
0.44246594	-81.7694868034609	65.0934227805979	0
0.44282018	-81.6225328507619	64.3341566873715	0
0.44347012	-81.4769136942179	63.5795508554982	0
0.44353511	-81.3326033755647	62.8295737097082	0
0.44360011	-81.189575623255	62.0841682592025	0
0.44370626	-81.0478149931767	61.3432252448921	0
0.44409701	-80.9072902645887	60.6065199662104	0
0.44449163	-80.7679557671911	59.8737898260709	0
0.44453109	-80.6297619191725	59.1447876912322	0
0.44458222	-80.492680947868	58.4193626120341	0
0.44483785	-80.3566972586373	57.6974578902639	0
0.44506747	-80.2218003870735	56.9790622879955	0
0.44570415	-80.0879827008473	56.2641428620237	0
0.44595821	-79.9552516016454	55.5526672316298	0
0.44620882	-79.8236104275117	54.8445792046857	0
0.44685554	-79.6930459569566	54.1397764071784	0
0.44707845	-79.5635344346601	53.4381102113121	0
0.44746767	-79.435054798069	52.7394132315352	0
0.44802446	-79.3075947782312	52.0435437859878	0
0.44808014	-79.1811571085262	51.3503891471802	0
0.44816857	-79.0557502239868	50.6598072779029	0
0.44860554	-78.9313968779807	49.9717297874357	0
0.44899683	-78.8081276287647	49.2861460729277	0
0.44903596	-78.6859755995511	48.6030907471121	0
0.44908474	-78.5649821026361	47.9226280665381	0
0.44932866	-78.4451831001821	47.2447770307439	0
0.44955996	-78.3266031278146	46.5695035196796	0
0.45020544	-78.2092557427665	45.8967208231847	0
0.45032909	-78.0931386950097	45.2263058150722	0
0.45068785	-77.9782450939986	44.5581806239628	0
0.45111713	-77.864572183935	43.8923169242294	0
0.45116006	-77.7521203559596	43.2287225949999	0
0.45122469	-77.6408910494923	42.5673662946441	0
0.45154787	-77.5308864158947	41.9081839846436	0
0.45185241	-77.4221000237687	41.2510696102823	0
0.4523475	-77.3145218719796	40.5959529868116	0
0.45239701	-77.2081397317257	39.9428460589645	0
0.45250498	-77.1029466217654	39.2918027199497	0
0.45289217	-76.998923550097	38.6428286703358	0
0.453368	-76.8960445151236	37.995871039331	0
0.45341559	-76.7942798537629	37.3508289271997	0
0.45350987	-76.6935963834643	36.7076321226579	0
0.45398127	-76.5939496664621	36.0662117282019	0
0.45437082	-76.495289888659	35.4265259547415	0
0.45440978	-76.3975673310402	34.7885996769687	0
0.45445724	-76.300732949997	34.152481993328	0
0.45469455	-76.2047297350814	33.5181688889424	0
0.45493083	-76.1095030081807	32.8856297389688	0
0.45559111	-76.0150124261538	32.2548490926354	0
0.45573457	-75.9212431150072	31.6258789958213	0
0.45629547	-75.828198451225	30.9988231705919	0
0.45635156	-75.7358807916196	30.3737424391179	0
0.45644301	-75.6442906731439	29.7506645846867	0
0.45690028	-75.5534288299689	29.1296131714822	0
0.45729023	-75.4633031602179	28.5106465813623	0
0.45732923	-75.3739241376043	27.8938444746778	0
0.45738775	-75.2852987481292	27.2792595624634	0
0.45768035	-75.1974219264365	26.6669311990933	0
0.457926	-75.1102893077656	26.0569172710541	0
0.45859275	-75.0239059209809	25.4492576362648	0
0.45871873	-74.9382840031571	24.8439851081017	0
0.45902942	-74.8534495749171	24.2411595915419	0
0.45953489	-74.7694294967669	23.6408607210355	0
0.45958544	-74.686231039144	23.0431293357613	0
0.45973011	-74.6038445800996	22.4480075349662	0
0.46018052	-74.522252090868	21.8555569701301	0
0.4605964	-74.4414325733461	21.265812277323	0
